<?xml version="1.0" standalone="no"?><!DOCTYPE svg PUBLIC "-//W3C//DTD SVG 1.1//EN" "http://www.w3.org/Graphics/SVG/1.1/DTD/svg11.dtd"><svg class="icon" width="200px" height="200.00px" viewBox="0 0 1024 1024" version="1.1" xmlns="http://www.w3.org/2000/svg"><path d="M0 0m186.181818 0l651.636364 0q186.181818 0 186.181818 186.181818l0 651.636364q0 186.181818-186.181818 186.181818l-651.636364 0q-186.181818 0-186.181818-186.181818l0-651.636364q0-186.181818 186.181818-186.181818Z" fill="#26CD55" /><path d="M730.903273 186.181818H294.539636A108.916364 108.916364 0 0 0 186.181818 294.4v505.483636a37.236364 37.236364 0 0 0 63.813818 26.717091l75.729455-75.589818a76.241455 76.241455 0 0 1 54.923636-22.248727h348.765091A108.916364 108.916364 0 0 0 837.818182 620.544V294.4C839.261091 235.101091 790.341818 186.181818 730.903273 186.181818z m-54.923637 406.202182a26.577455 26.577455 0 0 1-26.717091 26.670545c-4.421818 0-7.400727 0-10.379636-1.489454a28.299636 28.299636 0 0 1-14.848-7.400727l-219.694545-219.415273v201.634909a26.577455 26.577455 0 0 1-26.670546 26.670545 26.577455 26.577455 0 0 1-26.717091-26.670545v-263.912727c-1.489455-8.843636 0-19.269818 7.447273-26.670546a30.487273 30.487273 0 0 1 43.008 0l222.626909 220.904728V321.070545c0-14.801455 11.869091-26.670545 26.717091-26.670545 14.894545 0 26.717091 11.869091 26.717091 26.670545v271.313455h-1.489455z" fill="#FFFFFF" /></svg>