<?xml version="1.0" standalone="no"?><!DOCTYPE svg PUBLIC "-//W3C//DTD SVG 1.1//EN" "http://www.w3.org/Graphics/SVG/1.1/DTD/svg11.dtd"><svg class="icon" width="200px" height="200.00px" viewBox="0 0 1024 1024" version="1.1" xmlns="http://www.w3.org/2000/svg"><path d="M760.497426 20.277228H273.84396C133.84998 20.277228 20.378614 133.748594 20.378614 273.742574v486.653466c0 139.99398 113.471366 253.465347 253.465346 253.465346h486.653466c139.99398 0 253.465347-113.471366 253.465346-253.465346V273.742574C1013.962772 133.748594 900.491406 20.277228 760.497426 20.277228z m-486.653466 20.277227h486.653466C889.278099 40.554455 993.685545 144.961901 993.685545 273.742574v486.653466c0 128.780673-104.407446 233.188119-233.188119 233.188118H273.84396C145.063287 993.584158 40.655842 889.176713 40.655842 760.39604V273.742574C40.655842 144.961901 145.063287 40.554455 273.84396 40.554455z" fill="#CCD3E6" /><path d="M111.626139 889.987802h778.463049V111.54503H111.626139z" fill="#FEFEFE" /><path d="M145.975762 629.344317h23.420198V536.535446l36.580119 80.906138c4.156832 9.712792 10.098059 13.322139 21.635802 13.322139 11.517465 0 17.11398-3.609347 21.43303-13.322139l36.397624-80.906138v92.788594h23.602693V536.535446c0-9.023366-3.609347-13.342416-11.172753-15.694575-17.84396-5.393743-29.726416-0.709703-35.140435 11.355248l-35.850139 80.01394-34.592951-80.01394c-5.231525-12.06495-17.296475-16.74899-35.32293-11.355248-7.380911 2.352158-10.990257 6.671208-10.990258 15.694575v92.788594zM328.511366 553.831921h23.602693v50.997228c-0.202772 2.879366 0.912475 9.368079 13.687129 9.550574 6.671208 0.202772 50.814733 0 51.179723 0v-60.912792h23.602693v83.440792c0 20.540832-25.407366 25.042376-37.310099 25.224871h-74.214654v-15.674297h74.417426c15.126812-1.622178 13.322139-9.205861 13.322139-11.720238v-6.123722h-49.902258c-23.25798-0.182495-38.202297-10.46305-38.384792-22.16301 0-1.074693 0.547485-52.254416 0-52.619406M834.85402 494.723802c-14.417109-0.36499-25.589861 1.074693-34.957941 5.069307-2.696871 1.054416-7.036198 1.054416-7.380911 4.481267 1.419406 1.439683 1.622178 3.791842 2.879367 5.758733 2.169663 3.609347 5.941228 8.475881 9.368079 10.990257 3.791842 2.899644 7.563406 5.77901 11.537742 8.313664 7.015921 4.298772 14.944317 6.833426 21.79802 11.152475 3.954059 2.534653 7.908119 5.77901 11.882456 8.475881 1.987168 1.439683 3.244356 3.771564 5.77901 4.68404v-0.547485c-1.257188-1.622178-1.622178-3.954059-2.879367-5.758733-1.82495-1.784396-3.609347-3.406574-5.41402-5.231525a85.671287 85.671287 0 0 0-18.736158-18.188673c-5.77901-3.974337-18.391446-9.368079-20.723327-16.01901l-0.36499-0.385267c3.974337-0.36499 8.658376-1.804673 12.429941-2.879367 6.123723-1.622178 11.720238-1.257188 18.026455-2.879366a154.309703 154.309703 0 0 0 8.638099-2.534653v-1.622179c-3.244356-3.244356-5.576238-7.563406-9.003089-10.625267a240.852911 240.852911 0 0 0-29.726416-22.16301c-5.596515-3.609347-12.794931-5.941228-18.736158-9.003089-2.169663-1.09497-5.77901-1.622178-7.036198-3.426852-3.244356-3.974337-5.069307-9.185584-7.380911-13.8899a443.868515 443.868515 0 0 1-14.802376-31.348595c-3.244356-7.015921-5.211248-14.052119-9.165307-20.540831-18.553663-30.618614-38.749782-49.192554-69.753664-67.381228-6.650931-3.791842-14.599604-5.41402-23.055207-7.401188-4.501545-0.182495-9.003089-0.527208-13.504634-0.709703-2.879366-1.257188-5.758733-4.663762-8.313664-6.285941-10.24-6.488713-36.742337-20.561109-44.305742-2.007445-4.866535 11.720238 7.218693 23.237703 11.355247 29.199208 3.041584 4.136554 7.036198 8.820594 9.185585 13.504633 1.257188 3.061861 1.622178 6.306218 2.879366 9.550575 2.879366 7.928396 5.596515 16.74899 9.368079 24.150178 1.987168 3.771564 4.156832 7.745901 6.671208 11.172752 1.419406 1.987168 3.974337 2.879366 4.501545 6.123723-2.514376 3.609347-2.696871 9.003089-4.136555 13.504634-6.488713 20.378614-3.974337 45.623762 5.231525 60.547802 2.879366 4.501545 9.733069 14.417109 18.918653 10.645544 8.110891-3.244356 6.285941-13.524911 8.638099-22.507722 0.547485-2.189941 0.182495-3.629624 1.277466-5.069307v0.36499c2.514376 5.028752 5.028752 9.895287 7.380911 14.944317 5.576238 8.840871 15.309307 18.046733 23.420198 24.150178 4.31905 3.244356 7.745901 8.820594 13.15992 10.807762v-0.506931h-0.36499c-1.074693-1.622178-2.696871-2.352158-4.136554-3.609346a87.84095 87.84095 0 0 1-9.368079-10.807762 232.01204 232.01204 0 0 1-20.196119-32.808555c-2.879366-5.596515-5.393743-11.720238-7.745901-17.316752-1.074693-2.149386-1.074693-5.393743-2.879366-6.488713-2.696871 3.974337-6.691485 7.401188-8.658377 12.267723-3.406574 7.745901-3.771564 17.296475-5.028752 27.191762-0.72998 0.202772-0.36499 0-0.72998 0.36499-5.758733-1.419406-7.745901-7.380911-9.935842-12.429941-5.373465-12.774653-6.285941-33.335762-1.622178-48.117861 1.297743-3.771564 6.691485-15.674297 4.521822-19.263366-1.074693-3.426851-4.68404-5.41402-6.650931-8.110891a71.801663 71.801663 0 0 1-6.488713-11.537743c-4.339327-10.098059-6.488713-21.270812-11.172752-31.348594-2.169663-4.663762-5.941228-9.530297-9.00309-13.889901-3.447129-4.866535-7.218693-8.273109-9.935841-14.052119-0.892198-1.966891-2.149386-5.211248-0.709703-7.380911 0.36499-1.419406 1.074693-1.966891 2.534653-2.331881 2.331881-1.966891 9.003089 0.547485 11.334971 1.622178 6.671208 2.717149 12.267723 5.231525 17.84396 9.023367 2.534653 1.804673 5.231525 5.211248 8.475881 6.123722h3.771565c5.77901 1.257188 12.267723 0.36499 17.641188 1.987169 9.570851 3.041584 18.229228 7.563406 25.954851 12.42994a159.845386 159.845386 0 0 1 56.24903 61.622495c2.149386 4.136554 3.041584 7.908119 5.028752 12.247446 3.791842 8.840871 8.475881 17.84396 12.267723 26.482059 3.771564 8.475881 7.380911 17.134257 12.774654 24.129901 2.717149 3.812119 13.524911 5.799287 18.391445 7.766179 3.609347 1.622178 9.185584 3.041584 12.429941 5.028752 6.123723 3.812119 12.247446 8.110891 18.026455 12.267723 2.879366 2.169663 11.882455 6.671208 12.429941 10.280554" fill="#006693" /><path d="M651.04095 338.14305c-3.041584 0-5.231525 0.36499-7.38091 0.892198v0.36499h0.344712c1.45996 2.879366 3.974337 4.866535 5.77901 7.401188 1.439683 2.879366 2.696871 5.758733 4.136555 8.638099l0.36499-0.36499c2.514376-1.804673 3.791842-4.663762 3.791842-9.003089-1.09497-1.257188-1.277465-2.514376-2.169664-3.791842-1.074693-1.784396-3.426851-2.696871-4.866535-4.136554" fill="#006693" /><path d="M458.610059 629.344317h67.725941c7.948673 0 15.532356-1.622178 21.656079-4.501545 10.260277-4.68404 15.126812-10.990257 15.126812-19.283643v-17.296476c0-6.691485-5.576238-12.977426-16.74899-17.296475a58.844515 58.844515 0 0 0-20.013624-3.447128h-28.469227c-9.550574 0-14.052119-2.859089-15.309307-9.165307-0.202772-0.72998-0.202772-1.439683-0.202773-2.169664v-10.625267c0-0.547485 0-1.257188 0.202773-1.987168 1.257188-4.866535 3.771564-6.123723 12.06495-7.015921h69.388673v-15.694574h-65.961821c-9.550574 0-14.599604 0.547485-19.101149 1.987168-13.869624 4.31905-19.993347 11.152475-19.993346 23.237703v13.707406c0 10.625267 11.882455 19.628356 32.078574 21.79802 2.149386 0.182495 4.501545 0.182495 6.833426 0.182495h24.332673c0.892198 0 1.804673 0 2.514376 0.182495 7.401188 0.709703 10.645545 1.987168 12.774653 4.663762a5.474851 5.474851 0 0 1 1.824951 4.339327v13.707406c0 1.622178-1.074693 3.771564-3.244356 5.576237-2.149386 1.804673-5.576238 3.041584-10.09806 3.244357-0.892198 0-1.439683 0.182495-2.331881 0.182495h-65.049347v15.674297zM709.804356 602.132277c0 16.01901 12.044673 25.042376 36.194852 26.84705 2.352158 0.182495 4.501545 0.36499 6.853703 0.36499h61.257505v-15.674297h-61.80499c-13.687129 0-18.918653-3.447129-18.918654-11.720238v-81.108911H709.804356v81.291406zM603.470574 601.584792c0 0.72998 0.36499 1.439683 0.547485 2.352158 1.257188 6.488713 7.380911 10.077782 16.748991 10.077783h21.291089l-19.466139-17.641188h27.191762l17.113981 15.471524a11.19303 11.19303 0 0 0 5.941227-7.563406c0.202772-0.709703 0.202772-1.622178 0.202773-2.331881v-53.531881c0-0.709703 0-1.419406-0.202773-2.149386-1.257188-6.123723-7.380911-9.530297-16.566495-9.530297h-35.485148c-10.46305 0-17.316752 4.481267-17.316753 11.679683v53.166891z m-25.407366 1.257188v-55.863762c0-14.234614 10.098059-22.872713 29.726416-25.549307 2.169663-0.202772 4.339327-0.385267 6.306218-0.385267h44.691009c2.352158 0 4.31905 0.202772 6.691486 0.36499 19.628356 2.696871 29.523644 11.355248 29.523643 25.569584v55.863762c0 11.55802-4.136554 17.661465-13.869624 21.79802l23.075486 20.905822h-27.21204l-18.756436-16.931485-18.918653 1.074693H614.095842a54.34297 54.34297 0 0 1-13.687129-1.804674c-14.964594-4.136554-22.345505-12.06495-22.345505-25.042376zM851.055525 629.506535h3.244356v-15.856792h-4.866534l-3.974337 10.807762-4.31905-10.807762h-4.663762v15.856792h3.041584v-12.064951h0.202772l4.481268 12.064951h2.352158l4.501545-12.064951v12.064951z m-26.137347 0h3.447129v-13.159921h4.481267v-2.696871h-12.612435v2.696871h4.684039v13.180198z" fill="#E59500" /></svg>