<?xml version="1.0" standalone="no"?><!DOCTYPE svg PUBLIC "-//W3C//DTD SVG 1.1//EN" "http://www.w3.org/Graphics/SVG/1.1/DTD/svg11.dtd"><svg t="1712737562001" class="icon" viewBox="0 0 1451 1024" version="1.1" xmlns="http://www.w3.org/2000/svg" p-id="2627" width="28.33984375" height="20" xmlns:xlink="http://www.w3.org/1999/xlink"><path d="M537.99812938 267.7422704c-30.56348408 0-61.65427412 23.728783-69.69569591 53.21737353L369.31081736 683.88834061c-8.0414209 29.48859052 10.09994326 53.21737354 40.66342822 53.21737354h434.89586514c30.56348408 0 61.65427412-23.728783 69.69569502-53.21737354l98.98147617-362.92869667c8.05156172-29.48859052-10.06952168-53.21737354-40.63300664-53.21737354h-434.92628672z m49.16117109 63.30717597c6.61161006 0.40562051 13.08125215 3.34636699 17.84729003 8.72083565l80.71842481 91.39637724-40.12598057 32.91608145 40.12598057-32.89580069 48.99892324 55.46856622c0.37519893 0.42590127 0.60843076 0.89236406 0.95320723 1.32840615 0.26365342 0.34477734 0.57800918 0.60843076 0.83152178 0.97348799 0.20281026 0.28393418 0.32449658 0.57800918 0.5070252 0.87208417 0.57800918 0.88222412 1.06475273 1.78472901 1.52107558 2.70751466 0.28393418 0.60843076 0.55772753 1.18643906 0.81124101 1.80500976a25.81772695 25.81772695 0 0 1 1.73402578 7.74734678c0.05070234 0.74025703 0.10140469 1.48051406 0.08112481 2.22077021-0.02028076 0.9126457-0.10140469 1.80500977-0.21295108 2.70751553a25.65547911 25.65547911 0 0 1-0.3650581 2.20048946 25.95969404 25.95969404 0 0 1-0.70983545 2.55540761c-0.24337177 0.77067862-0.48674443 1.52107558-0.81124013 2.27147344a25.82786778 25.82786778 0 0 1-1.12559679 2.23091103 25.38168574 25.38168574 0 0 1-1.34868691 2.21063027 25.81772695 25.81772695 0 0 1-1.490654 1.89627452c-0.58814912 0.70983545-1.19657989 1.38924932-1.87599375 2.04838154-0.27379336 0.26365342-0.48674443 0.57800918-0.77067862 0.83152178-0.37519893 0.32449658-0.78081855 0.5475876-1.17629824 0.85180254-0.38533886 0.30421494-0.70983545 0.6591331-1.11545595 0.94306728L520.30294636 672.05437069a25.87857012 25.87857012 0 0 1-36.13062128-6.34795664 25.88871094 25.88871094 0 0 1 6.38851816-36.13062129l186.06813838-130.33591963-31.02994688-35.15713242-79.49142421-89.97670723a25.84814854 25.84814854 0 0 1 2.28161425-36.58694414 25.81772695 25.81772695 0 0 1 18.75993486-6.46964297z m227.5630875 286.10422646c13.96347627 0 22.86684053 10.98216738 19.96665556 24.64142872-2.9103249 13.65926133-16.49860224 24.67185029-30.46207939 24.68199112l-100.96901455 0.06084316c-13.97361709 0-22.87698047-10.98216738-19.96665557-24.64142871 2.9103249-13.65926133 16.48846231-24.67185029 30.46207851-24.68199112l100.96901544-0.06084316z" fill="#6366f1" p-id="2628"></path></svg>