<?xml version="1.0" standalone="no"?><!DOCTYPE svg PUBLIC "-//W3C//DTD SVG 1.1//EN" "http://www.w3.org/Graphics/SVG/1.1/DTD/svg11.dtd"><svg class="icon" width="200px" height="200.00px" viewBox="0 0 1024 1024" version="1.1" xmlns="http://www.w3.org/2000/svg"><path d="M928 723.2c-51.2 25.6-300.8 128-352 160-51.2 25.6-83.2 25.6-128 6.4-44.8-19.2-307.2-128-358.4-153.6-25.6-12.8-38.4-19.2-38.4-32V614.4s345.6-76.8 403.2-96c64-19.2 83.2-19.2 128-6.4 44.8 19.2 332.8 70.4 384 83.2v89.6c0 12.8-12.8 25.6-38.4 38.4z" fill="#A32422" /><path d="M928 633.6c-51.2 25.6-300.8 128-352 153.6-51.2 25.6-83.2 25.6-128 6.4s-307.2-128-358.4-153.6c-51.2-25.6-51.2-38.4 0-57.6 44.8-19.2 313.6-121.6 371.2-140.8 57.6-19.2 76.8-19.2 121.6-6.4s300.8 115.2 345.6 134.4c51.2 19.2 51.2 38.4 0 64z" fill="#DC382C" /><path d="M928 576c-51.2 25.6-300.8 128-352 153.6-51.2 25.6-83.2 25.6-128 6.4-44.8-19.2-307.2-128-358.4-153.6-19.2-6.4-32-19.2-32-25.6V460.8S403.2 384 460.8 364.8s76.8-19.2 121.6 0 332.8 70.4 384 83.2v89.6c0 12.8-12.8 25.6-38.4 38.4z" fill="#A32422" /><path d="M928 480c-44.8 25.6-294.4 128-352 160-51.2 25.6-83.2 25.6-128 6.4-44.8-19.2-307.2-128-358.4-153.6s-51.2-38.4 0-57.6 313.6-121.6 371.2-140.8c57.6-19.2 76.8-19.2 121.6-6.4s300.8 115.2 345.6 134.4c51.2 19.2 51.2 32 0 57.6z" fill="#DC382C" /><path d="M928 416c-44.8 25.6-294.4 128-352 160-51.2 25.6-83.2 25.6-128 6.4-44.8-19.2-307.2-128-358.4-153.6-19.2-12.8-32-19.2-32-25.6V307.2s345.6-76.8 403.2-96 76.8-19.2 121.6 0 332.8 70.4 384 89.6V384c0 12.8-12.8 19.2-38.4 32z" fill="#A32422" /><path d="M928 326.4c-51.2 25.6-300.8 128-352 153.6-51.2 32-83.2 32-121.6 12.8s-307.2-128-358.4-153.6-51.2-38.4 0-57.6 313.6-121.6 371.2-140.8 76.8-19.2 121.6-6.4 300.8 115.2 345.6 134.4c44.8 19.2 44.8 32-6.4 57.6z" fill="#DC382C" /><path d="M524.8 198.4l64-25.6-19.2 44.8 64 19.2-83.2 6.4-12.8 44.8-32-44.8-89.6-12.8 64-19.2-19.2-38.4 64 25.6zM531.2 441.6L384 384l211.2-32-64 89.6zM326.4 262.4c64 0 115.2 19.2 115.2 44.8 0 25.6-51.2 44.8-115.2 44.8s-115.2-25.6-115.2-44.8c0-25.6 51.2-44.8 115.2-44.8z" fill="#FFFFFF" /><path d="M723.2 249.6l128 51.2-128 44.8V249.6z" fill="#741113" /><path d="M723.2 249.6v96l-12.8 6.4-121.6-51.2 134.4-51.2z" fill="#AC2724" /></svg>