<?xml version="1.0" standalone="no"?>
<!DOCTYPE svg PUBLIC "-//W3C//DTD SVG 20010904//EN"
 "http://www.w3.org/TR/2001/REC-SVG-20010904/DTD/svg10.dtd">
<svg version="1.0" xmlns="http://www.w3.org/2000/svg"
 width="200.000000pt" height="200.000000pt" viewBox="0 0 200.000000 200.000000"
 preserveAspectRatio="xMidYMid meet">

<g transform="translate(0.000000,200.000000) scale(0.100000,-0.100000)"
fill="#000000" stroke="none">
<path d="M249 1990 c-115 -15 -191 -74 -226 -175 -17 -46 -18 -111 -18 -815 0
-868 -3 -832 80 -915 83 -83 47 -80 915 -80 868 0 832 -3 915 80 83 83 80 47
80 915 0 868 3 832 -80 915 -82 83 -44 79 -875 81 -404 1 -760 -1 -791 -6z
m1268 -443 c28 -27 28 -28 28 -160 l0 -132 -530 0 -530 0 0 132 c0 125 1 133
24 157 13 14 33 27 45 29 11 3 227 4 478 3 l458 -1 27 -28z m23 -537 l0 -160
-530 0 -530 0 0 160 0 160 530 0 530 0 0 -160z m0 -374 c0 -118 -3 -147 -16
-160 -14 -14 -74 -16 -514 -16 l-499 0 -15 22 c-13 18 -16 52 -16 160 l0 138
530 0 530 0 0 -144z"/>
<path d="M640 1415 l0 -45 130 0 130 0 0 45 0 45 -130 0 -130 0 0 -45z"/>
<path d="M1148 1449 c-22 -12 -23 -52 -3 -69 8 -7 25 -10 40 -6 20 5 25 13 25
36 0 19 -7 33 -19 40 -23 12 -22 12 -43 -1z"/>
<path d="M1296 1444 c-9 -8 -16 -22 -16 -29 0 -7 7 -21 16 -29 8 -9 22 -16 29
-16 18 0 45 28 45 45 0 13 -37 45 -52 45 -3 0 -14 -7 -22 -16z"/>
<path d="M640 1005 l0 -45 130 0 130 0 0 45 0 45 -130 0 -130 0 0 -45z"/>
<path d="M1140 1036 c-6 -8 -10 -25 -8 -38 2 -19 9 -23 38 -23 31 0 35 3 38
29 5 42 -41 64 -68 32z"/>
<path d="M1290 1035 c-15 -19 -6 -61 16 -69 20 -8 64 19 64 39 0 37 -56 58
-80 30z"/>
<path d="M640 615 l0 -45 130 0 130 0 0 45 0 45 -130 0 -130 0 0 -45z"/>
<path d="M1140 645 c-17 -20 -5 -61 20 -68 11 -3 30 3 42 13 20 15 21 21 10
44 -13 30 -52 36 -72 11z"/>
<path d="M1290 645 c-7 -8 -10 -25 -6 -40 5 -19 13 -25 35 -25 39 0 57 23 43
55 -13 29 -52 34 -72 10z"/>
</g>
</svg>
