<?xml version="1.0" standalone="no"?><!DOCTYPE svg PUBLIC "-//W3C//DTD SVG 1.1//EN" "http://www.w3.org/Graphics/SVG/1.1/DTD/svg11.dtd"><svg t="1702866078562" class="icon" viewBox="0 0 1024 1024" version="1.1" xmlns="http://www.w3.org/2000/svg" p-id="61105" xmlns:xlink="http://www.w3.org/1999/xlink" width="200" height="200"><path d="M794.862934 972.799856H218.879614a126.949897 126.949897 0 0 1-126.719499-126.719498V177.923002A126.949897 126.949897 0 0 1 218.879614 51.203504h464.70056a80.121283 80.121283 0 0 1 56.908575 23.039909l170.696924 170.725724a34.559863 34.559863 0 0 1 10.396759 25.113501v575.99772a126.921098 126.921098 0 0 1-126.719498 126.719498zM218.879614 120.32323a57.599772 57.599772 0 0 0-57.599772 57.599772v668.157356a57.599772 57.599772 0 0 0 57.599772 57.599772h575.98332a57.599772 57.599772 0 0 0 57.599772-57.599772V284.367381L691.197744 123.088019a11.462355 11.462355 0 0 0-7.58877-2.764789H218.879614z" fill="#434260" p-id="61106"></path><path d="M312.421643 547.900738l25.804698-2.246391c0.935996 15.897537 7.214371 27.74869 18.863926 35.553459 11.649554 7.819169 25.588699 11.707154 41.860634 11.707154 15.422339 0 27.74869-3.211187 36.950254-9.604762 9.215964-6.393575 13.809545-14.831941 13.809545-25.3151 0-6.638374-1.799993-12.225552-5.399979-16.761534-3.599986-4.521582-8.510366-8.092768-14.716741-10.655958-6.220775-2.56319-19.238324-6.263975-39.052646-11.073556-19.814322-4.823981-33.983865-9.475162-42.494232-13.967944s-15.22074-10.468759-20.11672-17.942329-7.358371-16.171136-7.358371-26.092697c0-16.833533 6.609574-30.470279 19.843122-40.953438 13.219148-10.483159 30.643079-15.710338 52.228593-15.710338 23.097509 0 41.515036 5.356779 55.252581 16.055937 13.737546 10.699158 21.038317 25.833498 21.887913 45.35982l-26.092696 2.102392c-2.51999-26.279896-19.166324-39.412644-49.924603-39.412644-14.774342 0-26.323096 2.735989-34.631863 8.207967-8.323167 5.471978-12.484751 12.959949-12.48475 22.507111 0 9.259163 3.585586 16.012737 10.727957 20.26072 7.156772 4.262383 20.707118 8.639966 40.665439 13.118348s34.919862 8.971164 44.884623 13.463947 17.999929 10.943957 24.119904 19.353523c6.119976 8.423967 9.187164 18.417527 9.187164 30.009481 0 17.855929-7.113572 32.587071-21.383915 44.179025-14.255944 11.591954-32.515071 17.380731-54.762984 17.380732-26.827094 0-47.96621-6.033576-63.388549-18.086329-15.451139-12.038352-23.529507-29.188684-24.278304-51.436596zM514.078445 613.953276V408.36529h27.215892v84.426866h106.847577v-84.426866h27.359892V613.953276h-27.359892v-96.767617h-106.847577v96.767617H514.078445z" fill="#434260" p-id="61107"></path></svg>