<?xml version="1.0" standalone="no"?><!DOCTYPE svg PUBLIC "-//W3C//DTD SVG 1.1//EN" "http://www.w3.org/Graphics/SVG/1.1/DTD/svg11.dtd"><svg t="1712738324787" class="icon" viewBox="0 0 1024 1024" version="1.1" xmlns="http://www.w3.org/2000/svg" p-id="82384" xmlns:xlink="http://www.w3.org/1999/xlink" width="20" height="20"><path d="M0 0v1024h1024V0z m56.889 56.889H967.11v512H56.89z m150.755 861.298a120.604 120.604 0 0 1-75.946 20.48 156.729 156.729 0 0 1-74.81-15.076v-58.88a106.098 106.098 0 0 0 71.965 28.445 56.889 56.889 0 0 0 34.418-8.25 25.031 25.031 0 0 0 11.662-21.048 31.289 31.289 0 0 0-9.102-21.334 174.08 174.08 0 0 0-48.355-27.022 85.333 85.333 0 0 1-60.587-80.498 70.542 70.542 0 0 1 28.444-59.733 119.182 119.182 0 0 1 73.103-21.049 170.667 170.667 0 0 1 64.568 10.525v54.897a103.822 103.822 0 0 0-61.724-18.773 60.018 60.018 0 0 0-33.28 7.965 23.893 23.893 0 0 0-12.231 21.333 28.444 28.444 0 0 0 8.533 19.627 160.142 160.142 0 0 0 41.814 24.177 134.258 134.258 0 0 1 53.76 37.263 75.378 75.378 0 0 1 14.79 46.364 72.249 72.249 0 0 1-27.022 60.587z m259.983 15.929h-56.89V820.338H299.805v113.778h-56.888V658.773h56.888v111.218h111.787V658.773h56.889z m182.044 0H494.364V658.773h149.334v48.071h-93.582v64.854h86.755v47.786h-86.755v66.56h99.555z m162.418 0H657.92V658.773h56.889V886.33h98.133z m155.022 0H813.227V658.773h56.889V886.33h96.995z" fill="#3972F7" p-id="82385"></path><path d="M339.911 173.511L190.01 323.413 339.91 473.031l50.062-49.778-99.84-99.84 99.84-99.84-50.062-50.062z m119.182 214.756h282.454v70.542H459.093z" fill="#3972F7" p-id="82386"></path></svg>