<?xml version="1.0" standalone="no"?><!DOCTYPE svg PUBLIC "-//W3C//DTD SVG 1.1//EN" "http://www.w3.org/Graphics/SVG/1.1/DTD/svg11.dtd"><svg t="1702865905566" class="icon" viewBox="0 0 1024 1024" version="1.1" xmlns="http://www.w3.org/2000/svg" p-id="45691" xmlns:xlink="http://www.w3.org/1999/xlink" width="200" height="200"><path d="M861.09 349.09c-102.82 0-186.18-83.36-186.18-186.18a185.46 185.46 0 0 1 13.66-69.82H143.22C64.45 93.09 0 157.54 0 236.3v644.48C0 959.55 64.45 1024 143.22 1024h644.47c78.77 0 143.22-64.45 143.22-143.22V335.43a185.5 185.5 0 0 1-69.82 13.66z m-545.2 312.77q-24.45 17.65-68.45 17.64c-28.37 0-50.54-5.87-66.52-17-19.22-13.72-29.66-35.22-31.61-64.54h35.2c2.61 18.22 9.13 31.59 19.56 39.41 9.46 7.18 23.8 10.77 43.37 10.77 17.6 0 31.61-3.27 42-9.14s15.65-14 15.65-24.45c0-13-7.5-23.14-22.17-30.64-5.21-2.59-20.54-7.82-46.29-15.63-28.69-9.14-46.29-15.32-53.46-19.23-17.93-10.77-26.73-26.41-26.73-46.64 0-20.54 8.48-36.5 25.75-48.23q24.45-16.63 61.61-16.63c27.06 0 48.25 5.54 63.57 17.27 16.3 12.09 25.43 30.64 27.71 56.09h-35.21c-3.26-15-9.12-26.09-18.25-32.59-9.13-6.86-22.17-10.14-39.77-10.14q-23 0-35.2 6.87c-10.12 5.23-15 13.68-15 25.41 0 10.45 5.54 18.59 17.27 24.77 5.21 3 18.59 7.82 40.43 14.36 31.3 9.78 51.83 17.28 61 22.82 19.89 12 30 28.68 30 50.18-0.01 20.91-8.16 37.23-24.46 49.27z m215.46 0q-24.45 17.65-68.46 17.64c-28.36 0-50.53-5.87-66.51-17-19.22-13.72-29.66-35.22-31.61-64.54h35.2c2.61 18.22 9.13 31.59 19.56 39.41 9.45 7.18 23.8 10.77 43.36 10.77 17.61 0 31.62-3.27 42.05-9.14s15.65-14 15.65-24.45c0-13-7.5-23.14-22.17-30.64-5.21-2.59-20.54-7.82-46.29-15.63-28.69-9.14-46.29-15.32-53.46-19.23-17.94-10.77-26.73-26.41-26.73-46.64 0-20.54 8.48-36.5 25.75-48.23q24.43-16.63 61.61-16.63c27.06 0 48.25 5.54 63.57 17.27 16.3 12.09 25.43 30.64 27.71 56.09h-35.21c-3.26-15-9.12-26.09-18.25-32.59-9.14-6.86-22.17-10.14-39.77-10.14q-23 0-35.21 6.87c-10.11 5.23-15 13.68-15 25.41 0 10.45 5.55 18.59 17.28 24.77 5.21 3 18.59 7.82 40.43 14.36 31.29 9.78 51.83 17.28 61 22.82 19.89 12 30 28.68 30 50.18-0.05 20.91-8.21 37.23-24.5 49.27z m250.25 13h-35.54V570.59H624.14v104.34h-35.53V442.18h35.53v98.09h121.92v-98.09h35.54z" fill="#FE7A38" p-id="45692"></path><path d="M861.09 0a162.91 162.91 0 0 0-162.91 162.93 162.91 162.91 0 0 0 162.91 162.91A162.91 162.91 0 0 0 1024 162.93 162.91 162.91 0 0 0 861.09 0z m71 194.39h-95.53V84.87h21.9v87.62h73.63z" fill="#C0CCDA" p-id="45693"></path></svg>